<svg xmlns="http://www.w3.org/2000/svg" viewBox="0 0 702.63 206.21"><defs><style>.cls-1,.cls-2{fill:#4da6e7;}.cls-1{fill-rule:evenodd;}.cls-2{font-size:136.05px;font-family:Poppins-ExtraBold, Poppins;font-weight:800;letter-spacing:0.05em;}</style></defs><g id="图层_2" data-name="图层 2"><path class="cls-1" d="M115.69,38.57c2.53,1.45,2.55,3.87,0,5.36L77.6,66.53l-4.81,2.85a.51.51,0,0,1-.48,0l-4.8-2.86-38-22.67c-2.51-1.5-2.49-3.92,0-5.38l14.91-8.61c26.63-15.37,26-17.8,51.55-2.65l9.2,5.31,10.47,6Zm26.19,55.66c5.78,11.86,1.83,27.37-7.65,32.41l-20.81,12-9.2,5.31-10.35,6c-2.53,1.46-4.6.26-4.6-2.66V139a10.21,10.21,0,0,1,4.6-8L96,129.77l9.2-5.31,24.17-14c6-3.45,13.18-8.82,12.49-16.27ZM108.82,15.66l30.61,17.67c7.1,4.1,7.7,11.33,0,16.05l-6.16,3.76L128.7,55.9l-4.57,2.71L86.05,81.19,81.25,84a.56.56,0,0,0-.23.41V155c0,3-1,4.18-4.32,4.18H68.83c-4.23,0-4.75-.89-4.75-5V84.41a.52.52,0,0,0-.23-.4l-4.79-2.86L21,58.41c-2.51-1.5-4.56-.33-4.56,2.59v47.52c0,9.84-.82,19.53,7.9,28.24l-14.24-10C1.93,121,0,119.34,0,109.31V47.07c0-9.31,6.28-14.7,17.28-20.81L53.63,6.06C73.2-4.81,80.45-.72,108.82,15.66Z"/><text class="cls-2" transform="translate(177.08 122.4)">ROCOS</text></g></svg>